<mxfile host="app.diagrams.net" agent="Mozilla/5.0 (Windows NT 10.0; Win64; x64) AppleWebKit/537.36 (KHTML, like Gecko) Chrome/131.0.0.0 Safari/537.36 Edg/131.0.0.0" version="25.0.3">
  <diagram name="HomePage" id="03018318-947c-dd8e-b7a3-06fadd420f32">
    <mxGraphModel dx="941" dy="1480" grid="1" gridSize="10" guides="1" tooltips="1" connect="1" arrows="1" fold="1" page="1" pageScale="1" pageWidth="1100" pageHeight="850" background="none" math="0" shadow="0">
      <root>
        <mxCell id="0" />
        <mxCell id="1" parent="0" />
        <mxCell id="SOSSbYVcVk1waGw0j60O-118" value="" style="rounded=0;whiteSpace=wrap;html=1;" parent="1" vertex="1">
          <mxGeometry x="710" y="3150" width="260" height="330" as="geometry" />
        </mxCell>
        <mxCell id="SOSSbYVcVk1waGw0j60O-38" value="" style="whiteSpace=wrap;html=1;rounded=0;shadow=0;labelBackgroundColor=none;strokeColor=#000000;strokeWidth=1;fillColor=none;fontFamily=Verdana;fontSize=12;fontColor=#000000;align=center;comic=1;" parent="1" vertex="1">
          <mxGeometry x="22.5" y="2020" width="1060" height="1500" as="geometry" />
        </mxCell>
        <mxCell id="SOSSbYVcVk1waGw0j60O-111" value="" style="rounded=0;whiteSpace=wrap;html=1;" parent="1" vertex="1">
          <mxGeometry x="390" y="3155" width="260" height="325" as="geometry" />
        </mxCell>
        <mxCell id="SOSSbYVcVk1waGw0j60O-112" value="" style="rounded=0;whiteSpace=wrap;html=1;" parent="1" vertex="1">
          <mxGeometry x="70" y="3150" width="260" height="330" as="geometry" />
        </mxCell>
        <mxCell id="SOSSbYVcVk1waGw0j60O-113" value="" style="rounded=0;whiteSpace=wrap;html=1;" parent="1" vertex="1">
          <mxGeometry x="710" y="2790" width="260" height="330" as="geometry" />
        </mxCell>
        <mxCell id="SOSSbYVcVk1waGw0j60O-114" value="" style="rounded=0;whiteSpace=wrap;html=1;" parent="1" vertex="1">
          <mxGeometry x="390" y="2790" width="260" height="330" as="geometry" />
        </mxCell>
        <mxCell id="SOSSbYVcVk1waGw0j60O-117" value="" style="rounded=0;whiteSpace=wrap;html=1;" parent="1" vertex="1">
          <mxGeometry x="70" y="2790" width="260" height="330" as="geometry" />
        </mxCell>
        <mxCell id="SOSSbYVcVk1waGw0j60O-115" value="" style="rounded=0;whiteSpace=wrap;html=1;" parent="1" vertex="1">
          <mxGeometry x="710" y="2430" width="260" height="330" as="geometry" />
        </mxCell>
        <mxCell id="SOSSbYVcVk1waGw0j60O-116" value="" style="rounded=0;whiteSpace=wrap;html=1;" parent="1" vertex="1">
          <mxGeometry x="390" y="2430" width="260" height="330" as="geometry" />
        </mxCell>
        <mxCell id="SOSSbYVcVk1waGw0j60O-110" value="" style="rounded=0;whiteSpace=wrap;html=1;" parent="1" vertex="1">
          <mxGeometry x="70" y="2430" width="260" height="330" as="geometry" />
        </mxCell>
        <mxCell id="SOSSbYVcVk1waGw0j60O-49" value="" style="verticalLabelPosition=bottom;shadow=0;dashed=0;align=center;html=1;verticalAlign=top;strokeWidth=1;shape=mxgraph.mockup.graphics.simpleIcon;strokeColor=#999999;" parent="1" vertex="1">
          <mxGeometry x="70" y="2080" width="970" height="300" as="geometry" />
        </mxCell>
        <mxCell id="0oVjRYis8iT4bL8j5EBO-11" value="" style="edgeStyle=orthogonalEdgeStyle;rounded=0;orthogonalLoop=1;jettySize=auto;html=1;entryX=0.417;entryY=0;entryDx=0;entryDy=0;entryPerimeter=0;" parent="1" source="677b7b8949515195-1" target="SOSSbYVcVk1waGw0j60O-13" edge="1">
          <mxGeometry relative="1" as="geometry">
            <mxPoint x="540" y="1290" as="targetPoint" />
            <Array as="points">
              <mxPoint x="540" y="1260" />
              <mxPoint x="540" y="1260" />
            </Array>
          </mxGeometry>
        </mxCell>
        <mxCell id="677b7b8949515195-1" value="" style="whiteSpace=wrap;html=1;rounded=0;shadow=0;labelBackgroundColor=none;strokeColor=#000000;strokeWidth=1;fillColor=none;fontFamily=Verdana;fontSize=12;fontColor=#000000;align=center;comic=1;" parent="1" vertex="1">
          <mxGeometry x="20" y="-10" width="1060" height="1220" as="geometry" />
        </mxCell>
        <mxCell id="677b7b8949515195-2" value="shelter paws" style="whiteSpace=wrap;html=1;rounded=0;shadow=0;labelBackgroundColor=none;strokeWidth=1;fontFamily=Verdana;fontSize=28;align=center;comic=1;" parent="1" vertex="1">
          <mxGeometry x="40" y="30" width="190" height="50" as="geometry" />
        </mxCell>
        <mxCell id="677b7b8949515195-4" value="Our Animals" style="text;html=1;points=[];align=left;verticalAlign=top;spacingTop=-4;fontSize=14;fontFamily=Verdana" parent="1" vertex="1">
          <mxGeometry x="630" y="40" width="60" height="20" as="geometry" />
        </mxCell>
        <mxCell id="677b7b8949515195-6" value="Events" style="text;html=1;points=[];align=left;verticalAlign=top;spacingTop=-4;fontSize=14;fontFamily=Verdana" parent="1" vertex="1">
          <mxGeometry x="915" y="40" width="60" height="20" as="geometry" />
        </mxCell>
        <mxCell id="677b7b8949515195-7" value="About Us" style="text;html=1;points=[];align=left;verticalAlign=top;spacingTop=-4;fontSize=14;fontFamily=Verdana" parent="1" vertex="1">
          <mxGeometry x="1000" y="40" width="60" height="20" as="geometry" />
        </mxCell>
        <mxCell id="677b7b8949515195-9" value="" style="line;strokeWidth=1;html=1;rounded=0;shadow=0;labelBackgroundColor=none;fillColor=none;fontFamily=Verdana;fontSize=14;fontColor=#000000;align=center;comic=1;" parent="1" vertex="1">
          <mxGeometry x="20" y="40" width="1060" height="110" as="geometry" />
        </mxCell>
        <mxCell id="677b7b8949515195-11" value="Small dogs" style="text;html=1;points=[];align=left;verticalAlign=top;spacingTop=-4;fontSize=14;fontFamily=Verdana" parent="1" vertex="1">
          <mxGeometry x="267.5" y="417" width="60" height="20" as="geometry" />
        </mxCell>
        <mxCell id="677b7b8949515195-12" value="Medium dogs" style="text;html=1;points=[];align=left;verticalAlign=top;spacingTop=-4;fontSize=14;fontFamily=Verdana" parent="1" vertex="1">
          <mxGeometry x="407.5" y="417" width="100" height="20" as="geometry" />
        </mxCell>
        <mxCell id="677b7b8949515195-13" value="L Dogs" style="text;html=1;points=[];align=left;verticalAlign=top;spacingTop=-4;fontSize=14;fontFamily=Verdana" parent="1" vertex="1">
          <mxGeometry x="577.5" y="416" width="60" height="20" as="geometry" />
        </mxCell>
        <mxCell id="677b7b8949515195-14" value="Elderly dogs" style="text;html=1;points=[];align=left;verticalAlign=top;spacingTop=-4;fontSize=14;fontFamily=Verdana" parent="1" vertex="1">
          <mxGeometry x="707.5" y="416" width="100" height="20" as="geometry" />
        </mxCell>
        <mxCell id="677b7b8949515195-16" value="" style="verticalLabelPosition=bottom;shadow=0;dashed=0;align=center;html=1;verticalAlign=top;strokeWidth=1;shape=mxgraph.mockup.graphics.simpleIcon;strokeColor=#999999;rounded=0;labelBackgroundColor=none;fontFamily=Verdana;fontSize=14;fontColor=#000000;comic=1;" parent="1" vertex="1">
          <mxGeometry x="120" y="110" width="880" height="210" as="geometry" />
        </mxCell>
        <mxCell id="677b7b8949515195-26" value="" style="whiteSpace=wrap;html=1;rounded=0;shadow=0;labelBackgroundColor=none;strokeWidth=1;fillColor=none;fontFamily=Verdana;fontSize=12;align=center;comic=1;" parent="1" vertex="1">
          <mxGeometry x="170" y="810" width="800" height="60" as="geometry" />
        </mxCell>
        <mxCell id="677b7b8949515195-42" value="Google maps location" style="text;html=1;points=[];align=left;verticalAlign=top;spacingTop=-4;fontSize=14;fontFamily=Verdana" parent="1" vertex="1">
          <mxGeometry x="485" y="830" width="165" height="20" as="geometry" />
        </mxCell>
        <mxCell id="avCBytwsbi0M-tpys4wh-1" value="ADOPT" style="text;html=1;points=[];align=left;verticalAlign=top;spacingTop=-4;fontSize=14;fontFamily=Verdana;fillColor=#FFFF33;" parent="1" vertex="1">
          <mxGeometry x="740" y="40" width="60" height="20" as="geometry" />
        </mxCell>
        <mxCell id="avCBytwsbi0M-tpys4wh-2" value="" style="verticalLabelPosition=bottom;shadow=0;dashed=0;align=center;html=1;verticalAlign=top;strokeWidth=1;shape=mxgraph.mockup.graphics.simpleIcon;strokeColor=#999999;" parent="1" vertex="1">
          <mxGeometry x="277.5" y="361" width="50" height="50" as="geometry" />
        </mxCell>
        <mxCell id="avCBytwsbi0M-tpys4wh-3" value="" style="verticalLabelPosition=bottom;shadow=0;dashed=0;align=center;html=1;verticalAlign=top;strokeWidth=1;shape=mxgraph.mockup.graphics.simpleIcon;strokeColor=#999999;" parent="1" vertex="1">
          <mxGeometry x="427.5" y="361" width="50" height="50" as="geometry" />
        </mxCell>
        <mxCell id="avCBytwsbi0M-tpys4wh-4" value="" style="verticalLabelPosition=bottom;shadow=0;dashed=0;align=center;html=1;verticalAlign=top;strokeWidth=1;shape=mxgraph.mockup.graphics.simpleIcon;strokeColor=#999999;" parent="1" vertex="1">
          <mxGeometry x="582.5" y="361" width="50" height="50" as="geometry" />
        </mxCell>
        <mxCell id="avCBytwsbi0M-tpys4wh-5" value="" style="verticalLabelPosition=bottom;shadow=0;dashed=0;align=center;html=1;verticalAlign=top;strokeWidth=1;shape=mxgraph.mockup.graphics.simpleIcon;strokeColor=#999999;" parent="1" vertex="1">
          <mxGeometry x="727.5" y="360" width="50" height="50" as="geometry" />
        </mxCell>
        <mxCell id="avCBytwsbi0M-tpys4wh-7" value="Looking for a specific breed?&amp;nbsp;&lt;div&gt;(list 10-25 breeds here, **COLUMN FORM**)&lt;/div&gt;" style="whiteSpace=wrap;html=1;rounded=0;shadow=0;labelBackgroundColor=none;strokeWidth=1;fillColor=none;fontFamily=Verdana;fontSize=12;align=center;comic=1;" parent="1" vertex="1">
          <mxGeometry x="287.5" y="550" width="575" height="71" as="geometry" />
        </mxCell>
        <mxCell id="YmRJtrEzOCk6H43vM8_z-1" value="" style="curved=1;endArrow=classic;html=1;rounded=0;exitX=0.936;exitY=1.443;exitDx=0;exitDy=0;exitPerimeter=0;entryX=0.5;entryY=0;entryDx=0;entryDy=0;" parent="1" source="677b7b8949515195-4" target="SOSSbYVcVk1waGw0j60O-16" edge="1">
          <mxGeometry width="50" height="50" relative="1" as="geometry">
            <mxPoint x="460" y="510" as="sourcePoint" />
            <mxPoint x="510" y="460" as="targetPoint" />
            <Array as="points">
              <mxPoint x="480" y="140" />
            </Array>
          </mxGeometry>
        </mxCell>
        <mxCell id="0oVjRYis8iT4bL8j5EBO-3" value="" style="whiteSpace=wrap;html=1;rounded=0;shadow=0;labelBackgroundColor=none;strokeWidth=1;fillColor=none;fontFamily=Verdana;fontSize=12;align=center;comic=1;" parent="1" vertex="1">
          <mxGeometry x="290" y="700" width="575" height="100" as="geometry" />
        </mxCell>
        <mxCell id="0oVjRYis8iT4bL8j5EBO-6" value="" style="verticalLabelPosition=bottom;shadow=0;dashed=0;align=center;html=1;verticalAlign=top;strokeWidth=1;shape=mxgraph.mockup.graphics.simpleIcon;strokeColor=#999999;" parent="1" vertex="1">
          <mxGeometry x="556.25" y="750" width="40" height="40" as="geometry" />
        </mxCell>
        <mxCell id="0oVjRYis8iT4bL8j5EBO-7" value="" style="verticalLabelPosition=bottom;shadow=0;dashed=0;align=center;html=1;verticalAlign=top;strokeWidth=1;shape=mxgraph.mockup.graphics.simpleIcon;strokeColor=#999999;" parent="1" vertex="1">
          <mxGeometry x="375" y="750" width="40" height="40" as="geometry" />
        </mxCell>
        <mxCell id="0oVjRYis8iT4bL8j5EBO-8" value="" style="verticalLabelPosition=bottom;shadow=0;dashed=0;align=center;html=1;verticalAlign=top;strokeWidth=1;shape=mxgraph.mockup.graphics.simpleIcon;strokeColor=#999999;" parent="1" vertex="1">
          <mxGeometry x="738.75" y="750" width="40" height="40" as="geometry" />
        </mxCell>
        <mxCell id="0oVjRYis8iT4bL8j5EBO-12" style="edgeStyle=orthogonalEdgeStyle;rounded=0;orthogonalLoop=1;jettySize=auto;html=1;exitX=0.5;exitY=1;exitDx=0;exitDy=0;" parent="1" source="677b7b8949515195-1" target="677b7b8949515195-1" edge="1">
          <mxGeometry relative="1" as="geometry" />
        </mxCell>
        <mxCell id="SOSSbYVcVk1waGw0j60O-40" value="" style="edgeStyle=orthogonalEdgeStyle;rounded=0;orthogonalLoop=1;jettySize=auto;html=1;" parent="1" source="SOSSbYVcVk1waGw0j60O-3" target="SOSSbYVcVk1waGw0j60O-39" edge="1">
          <mxGeometry relative="1" as="geometry" />
        </mxCell>
        <mxCell id="SOSSbYVcVk1waGw0j60O-3" value="" style="whiteSpace=wrap;html=1;rounded=0;shadow=0;labelBackgroundColor=none;strokeColor=#000000;strokeWidth=1;fillColor=none;fontFamily=Verdana;fontSize=12;fontColor=#000000;align=center;comic=1;" parent="1" vertex="1">
          <mxGeometry x="20" y="1310" width="1060" height="600" as="geometry" />
        </mxCell>
        <mxCell id="SOSSbYVcVk1waGw0j60O-4" value="home" style="shape=rectangle;strokeColor=none;fillColor=none;linkText=;fontSize=17;fontColor=#0000ff;fontStyle=4;html=1;align=center;" parent="1" vertex="1">
          <mxGeometry x="20" y="1310" width="80" height="30" as="geometry" />
        </mxCell>
        <mxCell id="SOSSbYVcVk1waGw0j60O-5" value="Live with Parents" style="strokeWidth=1;shadow=0;dashed=0;align=center;html=1;shape=mxgraph.mockup.forms.rrect;rSize=0;fillColor=#eeeeee;strokeColor=#999999;gradientColor=#cccccc;align=left;spacingLeft=4;fontSize=17;fontColor=#666666;labelPosition=right;" parent="1" vertex="1">
          <mxGeometry x="532.5" y="1570" width="15" height="15" as="geometry" />
        </mxCell>
        <mxCell id="SOSSbYVcVk1waGw0j60O-6" value="Mobile Home" style="strokeWidth=1;shadow=0;dashed=0;align=center;html=1;shape=mxgraph.mockup.forms.rrect;rSize=0;fillColor=#eeeeee;strokeColor=#999999;gradientColor=#cccccc;align=left;spacingLeft=4;fontSize=17;fontColor=#666666;labelPosition=right;" parent="1" vertex="1">
          <mxGeometry x="360" y="1570" width="15" height="15" as="geometry" />
        </mxCell>
        <mxCell id="SOSSbYVcVk1waGw0j60O-7" value="Apartment" style="strokeWidth=1;shadow=0;dashed=0;align=center;html=1;shape=mxgraph.mockup.forms.rrect;rSize=0;fillColor=#eeeeee;strokeColor=#999999;gradientColor=#cccccc;align=left;spacingLeft=4;fontSize=17;fontColor=#666666;labelPosition=right;" parent="1" vertex="1">
          <mxGeometry x="222.5" y="1570" width="15" height="15" as="geometry" />
        </mxCell>
        <mxCell id="SOSSbYVcVk1waGw0j60O-8" value="Home" style="strokeWidth=1;shadow=0;dashed=0;align=center;html=1;shape=mxgraph.mockup.forms.rrect;rSize=0;fillColor=#eeeeee;strokeColor=#999999;gradientColor=#cccccc;align=left;spacingLeft=4;fontSize=17;fontColor=#666666;labelPosition=right;" parent="1" vertex="1">
          <mxGeometry x="105" y="1570" width="15" height="15" as="geometry" />
        </mxCell>
        <mxCell id="SOSSbYVcVk1waGw0j60O-10" value="&lt;font style=&quot;font-size: 18px;&quot;&gt;First Name: *input req field*&lt;/font&gt;&lt;div&gt;&lt;span style=&quot;font-size: 18px;&quot;&gt;Middle Name:&lt;/span&gt;&lt;/div&gt;&lt;div&gt;&lt;div&gt;&lt;font style=&quot;font-size: 18px;&quot;&gt;Last name: *&lt;/font&gt;&lt;span style=&quot;font-size: 18px; background-color: initial;&quot;&gt;input req field*&lt;/span&gt;&lt;/div&gt;&lt;/div&gt;&lt;div&gt;&lt;span style=&quot;font-size: 18px; background-color: initial;&quot;&gt;Street Address: *&lt;/span&gt;&lt;span style=&quot;font-size: 18px; background-color: initial;&quot;&gt;input req field*&lt;/span&gt;&lt;/div&gt;&lt;div&gt;&lt;span style=&quot;font-size: 18px;&quot;&gt;City: *&lt;/span&gt;&lt;span style=&quot;font-size: 18px; background-color: initial;&quot;&gt;input req field*&lt;/span&gt;&lt;/div&gt;&lt;div&gt;&lt;span style=&quot;font-size: 18px; background-color: initial;&quot;&gt;State:&amp;nbsp;&lt;/span&gt;&lt;/div&gt;&lt;div&gt;&lt;span style=&quot;font-size: 18px; background-color: initial;&quot;&gt;Do you live in:&amp;nbsp;&lt;/span&gt;&lt;/div&gt;&lt;div&gt;&lt;span style=&quot;font-size: 18px; background-color: initial;&quot;&gt;&lt;br&gt;&lt;/span&gt;&lt;/div&gt;&lt;div&gt;&lt;span style=&quot;font-size: 18px; background-color: initial;&quot;&gt;&lt;br&gt;&lt;/span&gt;&lt;/div&gt;&lt;div&gt;&lt;span style=&quot;font-size: 18px; background-color: initial;&quot;&gt;&lt;br&gt;&lt;/span&gt;&lt;/div&gt;&lt;div&gt;&lt;span style=&quot;font-size: 18px; background-color: initial;&quot;&gt;&lt;br&gt;&lt;/span&gt;&lt;/div&gt;&lt;div&gt;&lt;span style=&quot;font-size: 18px; background-color: initial;&quot;&gt;&lt;br&gt;&lt;/span&gt;&lt;/div&gt;&lt;div&gt;&lt;span style=&quot;font-size: 18px; background-color: initial;&quot;&gt;&lt;br&gt;&lt;/span&gt;&lt;/div&gt;&lt;div&gt;&lt;span style=&quot;font-size: 18px; background-color: initial;&quot;&gt;Pet type:&lt;/span&gt;&lt;/div&gt;&lt;div&gt;&lt;span style=&quot;background-color: initial; font-size: 18px;&quot;&gt;&lt;br&gt;&lt;/span&gt;&lt;/div&gt;&lt;div&gt;&lt;span style=&quot;background-color: initial; font-size: 18px;&quot;&gt;Pet Gender Preference:&lt;/span&gt;&lt;/div&gt;&lt;div&gt;&lt;span style=&quot;background-color: initial; font-size: 18px;&quot;&gt;&lt;br&gt;&lt;/span&gt;&lt;/div&gt;&lt;div&gt;&lt;span style=&quot;background-color: initial; font-size: 18px;&quot;&gt;What made you decide you wanted to adopt a pet and how long have you been looking?&lt;/span&gt;&lt;/div&gt;&lt;div&gt;&lt;span style=&quot;font-size: 18px; background-color: initial;&quot;&gt;&lt;span style=&quot;white-space: pre;&quot;&gt;&#x9;&lt;/span&gt;*input text field*&lt;br&gt;&lt;/span&gt;&lt;/div&gt;" style="text;spacingTop=-5;whiteSpace=wrap;html=1;align=left;fontSize=12;fontFamily=Helvetica;fillColor=none;strokeColor=none;" parent="1" vertex="1">
          <mxGeometry x="90" y="1410" width="750" height="470" as="geometry" />
        </mxCell>
        <mxCell id="SOSSbYVcVk1waGw0j60O-11" value="Let&#39;s go! (submit)" style="strokeWidth=1;shadow=0;dashed=0;align=center;html=1;shape=mxgraph.mockup.buttons.button;strokeColor=#666666;fontColor=#ffffff;mainText=;buttonStyle=round;fontSize=17;fontStyle=1;fillColor=#008cff;whiteSpace=wrap;" parent="1" vertex="1">
          <mxGeometry x="80" y="1840" width="150" height="50" as="geometry" />
        </mxCell>
        <mxCell id="SOSSbYVcVk1waGw0j60O-12" value="&lt;h1 style=&quot;margin-top: 0px;&quot;&gt;Adoption&lt;/h1&gt;&lt;p&gt;Lorem ipsum dolor sit amet, consectetur adipisicing elit, sed do eiusmod tempor incididunt ut labore et dolore magna aliqua.&lt;/p&gt;" style="text;html=1;whiteSpace=wrap;overflow=hidden;rounded=0;" parent="1" vertex="1">
          <mxGeometry x="170" y="140" width="180" height="120" as="geometry" />
        </mxCell>
        <mxCell id="SOSSbYVcVk1waGw0j60O-13" value="Adoption Form" style="text;html=1;align=center;verticalAlign=middle;whiteSpace=wrap;rounded=0;fontSize=25;" parent="1" vertex="1">
          <mxGeometry x="465" y="1310" width="180" height="30" as="geometry" />
        </mxCell>
        <mxCell id="SOSSbYVcVk1waGw0j60O-14" value="Pet Information" style="text;html=1;align=center;verticalAlign=middle;whiteSpace=wrap;rounded=0;fontSize=18;" parent="1" vertex="1">
          <mxGeometry x="80" y="1650" width="140" height="30" as="geometry" />
        </mxCell>
        <mxCell id="SOSSbYVcVk1waGw0j60O-15" value="Future Owner Information" style="text;html=1;align=center;verticalAlign=middle;whiteSpace=wrap;rounded=0;fontSize=17;" parent="1" vertex="1">
          <mxGeometry x="80" y="1370" width="220" height="30" as="geometry" />
        </mxCell>
        <mxCell id="SOSSbYVcVk1waGw0j60O-16" value="Dogs" style="text;html=1;align=center;verticalAlign=middle;whiteSpace=wrap;rounded=0;fontSize=18;" parent="1" vertex="1">
          <mxGeometry x="517.5" y="330" width="60" height="30" as="geometry" />
        </mxCell>
        <mxCell id="SOSSbYVcVk1waGw0j60O-17" value="Cats" style="text;html=1;align=center;verticalAlign=middle;whiteSpace=wrap;rounded=0;fontSize=18;" parent="1" vertex="1">
          <mxGeometry x="527.5" y="437" width="60" height="30" as="geometry" />
        </mxCell>
        <mxCell id="SOSSbYVcVk1waGw0j60O-27" value="" style="verticalLabelPosition=bottom;shadow=0;dashed=0;align=center;html=1;verticalAlign=top;strokeWidth=1;shape=mxgraph.mockup.graphics.simpleIcon;strokeColor=#999999;fillColor=#ffffff;" parent="1" vertex="1">
          <mxGeometry x="827.5" y="470" width="50" height="50" as="geometry" />
        </mxCell>
        <mxCell id="SOSSbYVcVk1waGw0j60O-28" value="" style="verticalLabelPosition=bottom;shadow=0;dashed=0;align=center;html=1;verticalAlign=top;strokeWidth=1;shape=mxgraph.mockup.graphics.simpleIcon;strokeColor=#999999;fillColor=#ffffff;" parent="1" vertex="1">
          <mxGeometry x="530" y="467" width="50" height="50" as="geometry" />
        </mxCell>
        <mxCell id="SOSSbYVcVk1waGw0j60O-29" value="" style="verticalLabelPosition=bottom;shadow=0;dashed=0;align=center;html=1;verticalAlign=top;strokeWidth=1;shape=mxgraph.mockup.graphics.simpleIcon;strokeColor=#999999;fillColor=#ffffff;" parent="1" vertex="1">
          <mxGeometry x="277.5" y="470" width="50" height="50" as="geometry" />
        </mxCell>
        <mxCell id="SOSSbYVcVk1waGw0j60O-30" value="Personality (pic of silly looking cat)" style="text;html=1;align=center;verticalAlign=middle;whiteSpace=wrap;rounded=0;" parent="1" vertex="1">
          <mxGeometry x="200" y="520" width="205" height="30" as="geometry" />
        </mxCell>
        <mxCell id="SOSSbYVcVk1waGw0j60O-33" value="Activity level (pic of cats being active)" style="text;html=1;align=center;verticalAlign=middle;whiteSpace=wrap;rounded=0;" parent="1" vertex="1">
          <mxGeometry x="717.5" y="520" width="270" height="30" as="geometry" />
        </mxCell>
        <mxCell id="SOSSbYVcVk1waGw0j60O-34" value="Pattern type (gray cat)" style="text;html=1;align=center;verticalAlign=middle;whiteSpace=wrap;rounded=0;" parent="1" vertex="1">
          <mxGeometry x="480" y="520" width="150" height="30" as="geometry" />
        </mxCell>
        <mxCell id="SOSSbYVcVk1waGw0j60O-35" value="Not sure if you&#39;re ready to adopt? come by to one of our many&amp;nbsp;&lt;span style=&quot;white-space: pre;&quot;&gt;&#x9;&lt;/span&gt;&lt;span style=&quot;white-space: pre;&quot;&gt;&#x9;&lt;/span&gt; and meet our furr-endly crew" style="text;html=1;align=center;verticalAlign=middle;whiteSpace=wrap;rounded=0;" parent="1" vertex="1">
          <mxGeometry x="320" y="1850" width="295" height="30" as="geometry" />
        </mxCell>
        <UserObject label="events" link="https://www.draw.io" id="SOSSbYVcVk1waGw0j60O-36">
          <mxCell style="text;html=1;strokeColor=none;fillColor=none;whiteSpace=wrap;align=center;verticalAlign=middle;fontColor=#0000EE;fontStyle=4;" parent="1" vertex="1">
            <mxGeometry x="390" y="1850" width="60" height="40" as="geometry" />
          </mxCell>
        </UserObject>
        <mxCell id="SOSSbYVcVk1waGw0j60O-39" value="" style="shape=waypoint;sketch=0;size=6;pointerEvents=1;points=[];fillColor=none;resizable=0;rotatable=0;perimeter=centerPerimeter;snapToPoint=1;fontFamily=Verdana;strokeColor=#000000;fontColor=#000000;rounded=0;shadow=0;labelBackgroundColor=none;strokeWidth=1;comic=1;" parent="1" vertex="1">
          <mxGeometry x="540" y="2010" width="20" height="20" as="geometry" />
        </mxCell>
        <mxCell id="SOSSbYVcVk1waGw0j60O-43" value="Behavioral Resources" style="text;html=1;align=center;verticalAlign=middle;whiteSpace=wrap;rounded=0;fontSize=20;" parent="1" vertex="1">
          <mxGeometry x="447.5" y="2215" width="200" height="30" as="geometry" />
        </mxCell>
        <mxCell id="SOSSbYVcVk1waGw0j60O-44" value="home" style="shape=rectangle;strokeColor=none;fillColor=none;linkText=;fontSize=17;fontColor=#0000ff;fontStyle=4;html=1;align=center;" parent="1" vertex="1">
          <mxGeometry x="40" y="2040" width="80" height="30" as="geometry" />
        </mxCell>
        <UserObject label="Resources" link="https://www.draw.io" id="SOSSbYVcVk1waGw0j60O-48">
          <mxCell style="text;html=1;strokeColor=none;fillColor=none;whiteSpace=wrap;align=center;verticalAlign=middle;fontColor=#0000EE;fontStyle=4;" parent="1" vertex="1">
            <mxGeometry x="830" y="30" width="60" height="40" as="geometry" />
          </mxCell>
        </UserObject>
        <mxCell id="SOSSbYVcVk1waGw0j60O-50" value="" style="verticalLabelPosition=bottom;shadow=0;dashed=0;align=center;html=1;verticalAlign=top;strokeWidth=1;shape=mxgraph.mockup.graphics.simpleIcon;strokeColor=#999999;fillColor=#ffffff;" parent="1" vertex="1">
          <mxGeometry x="80" y="2440" width="240" height="160" as="geometry" />
        </mxCell>
        <mxCell id="SOSSbYVcVk1waGw0j60O-70" value="" style="verticalLabelPosition=bottom;shadow=0;dashed=0;align=center;html=1;verticalAlign=top;strokeWidth=1;shape=mxgraph.mockup.graphics.simpleIcon;strokeColor=#999999;fillColor=#ffffff;" parent="1" vertex="1">
          <mxGeometry x="80" y="3160" width="240" height="160" as="geometry" />
        </mxCell>
        <mxCell id="SOSSbYVcVk1waGw0j60O-71" value="" style="verticalLabelPosition=bottom;shadow=0;dashed=0;align=center;html=1;verticalAlign=top;strokeWidth=1;shape=mxgraph.mockup.graphics.simpleIcon;strokeColor=#999999;fillColor=#ffffff;" parent="1" vertex="1">
          <mxGeometry x="720" y="2800" width="240" height="160" as="geometry" />
        </mxCell>
        <mxCell id="SOSSbYVcVk1waGw0j60O-72" value="" style="verticalLabelPosition=bottom;shadow=0;dashed=0;align=center;html=1;verticalAlign=top;strokeWidth=1;shape=mxgraph.mockup.graphics.simpleIcon;strokeColor=#999999;fillColor=#ffffff;" parent="1" vertex="1">
          <mxGeometry x="400" y="2800" width="240" height="160" as="geometry" />
        </mxCell>
        <mxCell id="SOSSbYVcVk1waGw0j60O-73" value="" style="verticalLabelPosition=bottom;shadow=0;dashed=0;align=center;html=1;verticalAlign=top;strokeWidth=1;shape=mxgraph.mockup.graphics.simpleIcon;strokeColor=#999999;fillColor=#ffffff;" parent="1" vertex="1">
          <mxGeometry x="720" y="2440" width="240" height="160" as="geometry" />
        </mxCell>
        <mxCell id="SOSSbYVcVk1waGw0j60O-74" value="" style="verticalLabelPosition=bottom;shadow=0;dashed=0;align=center;html=1;verticalAlign=top;strokeWidth=1;shape=mxgraph.mockup.graphics.simpleIcon;strokeColor=#999999;fillColor=#ffffff;" parent="1" vertex="1">
          <mxGeometry x="400" y="2440" width="240" height="160" as="geometry" />
        </mxCell>
        <mxCell id="SOSSbYVcVk1waGw0j60O-75" value="" style="verticalLabelPosition=bottom;shadow=0;dashed=0;align=center;html=1;verticalAlign=top;strokeWidth=1;shape=mxgraph.mockup.graphics.simpleIcon;strokeColor=#999999;fillColor=#ffffff;" parent="1" vertex="1">
          <mxGeometry x="77.5" y="2800" width="240" height="160" as="geometry" />
        </mxCell>
        <mxCell id="SOSSbYVcVk1waGw0j60O-76" value="" style="verticalLabelPosition=bottom;shadow=0;dashed=0;align=center;html=1;verticalAlign=top;strokeWidth=1;shape=mxgraph.mockup.graphics.simpleIcon;strokeColor=#999999;fillColor=#ffffff;" parent="1" vertex="1">
          <mxGeometry x="720" y="3160" width="240" height="160" as="geometry" />
        </mxCell>
        <mxCell id="SOSSbYVcVk1waGw0j60O-77" value="" style="verticalLabelPosition=bottom;shadow=0;dashed=0;align=center;html=1;verticalAlign=top;strokeWidth=1;shape=mxgraph.mockup.graphics.simpleIcon;strokeColor=#999999;fillColor=#ffffff;" parent="1" vertex="1">
          <mxGeometry x="400" y="3160" width="240" height="160" as="geometry" />
        </mxCell>
        <mxCell id="SOSSbYVcVk1waGw0j60O-79" value="Option 1" style="strokeWidth=1;shadow=0;dashed=0;align=center;html=1;shape=mxgraph.mockup.forms.comboBox;strokeColor=#999999;fillColor=#ddeeff;align=left;fillColor2=#aaddff;mainText=;fontColor=#666666;fontSize=17;spacingLeft=3;" parent="1" vertex="1">
          <mxGeometry x="150" y="1520" width="150" height="20" as="geometry" />
        </mxCell>
        <mxCell id="SOSSbYVcVk1waGw0j60O-80" value="Dog" style="shape=ellipse;fillColor=#eeeeee;strokeColor=#999999;gradientColor=#cccccc;html=1;align=left;spacingLeft=4;fontSize=17;fontColor=#666666;labelPosition=right;shadow=0;" parent="1" vertex="1">
          <mxGeometry x="207.5" y="1720" width="15" height="15" as="geometry" />
        </mxCell>
        <mxCell id="SOSSbYVcVk1waGw0j60O-81" value="Cat" style="shape=ellipse;fillColor=#eeeeee;strokeColor=#999999;gradientColor=#cccccc;html=1;align=left;spacingLeft=4;fontSize=17;fontColor=#666666;labelPosition=right;shadow=0;" parent="1" vertex="1">
          <mxGeometry x="127.5" y="1720" width="15" height="15" as="geometry" />
        </mxCell>
        <mxCell id="SOSSbYVcVk1waGw0j60O-85" value="Male" style="shape=ellipse;fillColor=#eeeeee;strokeColor=#999999;gradientColor=#cccccc;html=1;align=left;spacingLeft=4;fontSize=17;fontColor=#666666;labelPosition=right;shadow=0;" parent="1" vertex="1">
          <mxGeometry x="265" y="1760" width="15" height="15" as="geometry" />
        </mxCell>
        <mxCell id="SOSSbYVcVk1waGw0j60O-86" value="Female" style="shape=ellipse;fillColor=#eeeeee;strokeColor=#999999;gradientColor=#cccccc;html=1;align=left;spacingLeft=4;fontSize=17;fontColor=#666666;labelPosition=right;shadow=0;" parent="1" vertex="1">
          <mxGeometry x="127.5" y="1760" width="15" height="15" as="geometry" />
        </mxCell>
        <UserObject label="Date" placeholders="1" name="Variable" id="SOSSbYVcVk1waGw0j60O-92">
          <mxCell style="text;html=1;strokeColor=none;fillColor=none;align=center;verticalAlign=middle;whiteSpace=wrap;overflow=hidden;" parent="1" vertex="1">
            <mxGeometry x="80" y="2600" width="80" height="20" as="geometry" />
          </mxCell>
        </UserObject>
        <UserObject label="Date" placeholders="1" name="Variable" id="SOSSbYVcVk1waGw0j60O-93">
          <mxCell style="text;html=1;strokeColor=none;fillColor=none;align=center;verticalAlign=middle;whiteSpace=wrap;overflow=hidden;" parent="1" vertex="1">
            <mxGeometry x="402.5" y="2600" width="80" height="20" as="geometry" />
          </mxCell>
        </UserObject>
        <UserObject label="Date" placeholders="1" name="Variable" id="SOSSbYVcVk1waGw0j60O-94">
          <mxCell style="text;html=1;strokeColor=none;fillColor=none;align=center;verticalAlign=middle;whiteSpace=wrap;overflow=hidden;" parent="1" vertex="1">
            <mxGeometry x="722.5" y="2600" width="80" height="20" as="geometry" />
          </mxCell>
        </UserObject>
        <UserObject label="Date" placeholders="1" name="Variable" id="SOSSbYVcVk1waGw0j60O-95">
          <mxCell style="text;html=1;strokeColor=none;fillColor=none;align=center;verticalAlign=middle;whiteSpace=wrap;overflow=hidden;" parent="1" vertex="1">
            <mxGeometry x="717.5" y="2960" width="80" height="20" as="geometry" />
          </mxCell>
        </UserObject>
        <UserObject label="Date" placeholders="1" name="Variable" id="SOSSbYVcVk1waGw0j60O-96">
          <mxCell style="text;html=1;strokeColor=none;fillColor=none;align=center;verticalAlign=middle;whiteSpace=wrap;overflow=hidden;" parent="1" vertex="1">
            <mxGeometry x="397.5" y="2960" width="80" height="20" as="geometry" />
          </mxCell>
        </UserObject>
        <UserObject label="Date" placeholders="1" name="Variable" id="SOSSbYVcVk1waGw0j60O-97">
          <mxCell style="text;html=1;strokeColor=none;fillColor=none;align=center;verticalAlign=middle;whiteSpace=wrap;overflow=hidden;" parent="1" vertex="1">
            <mxGeometry x="77.5" y="2960" width="80" height="20" as="geometry" />
          </mxCell>
        </UserObject>
        <UserObject label="Date" placeholders="1" name="Variable" id="SOSSbYVcVk1waGw0j60O-98">
          <mxCell style="text;html=1;strokeColor=none;fillColor=none;align=center;verticalAlign=middle;whiteSpace=wrap;overflow=hidden;" parent="1" vertex="1">
            <mxGeometry x="720" y="3320" width="80" height="20" as="geometry" />
          </mxCell>
        </UserObject>
        <UserObject label="Date" placeholders="1" name="Variable" id="SOSSbYVcVk1waGw0j60O-99">
          <mxCell style="text;html=1;strokeColor=none;fillColor=none;align=center;verticalAlign=middle;whiteSpace=wrap;overflow=hidden;" parent="1" vertex="1">
            <mxGeometry x="400" y="3320" width="80" height="20" as="geometry" />
          </mxCell>
        </UserObject>
        <UserObject label="Date" placeholders="1" name="Variable" id="SOSSbYVcVk1waGw0j60O-100">
          <mxCell style="text;html=1;strokeColor=none;fillColor=none;align=center;verticalAlign=middle;whiteSpace=wrap;overflow=hidden;" parent="1" vertex="1">
            <mxGeometry x="77.5" y="3320" width="80" height="20" as="geometry" />
          </mxCell>
        </UserObject>
        <mxCell id="SOSSbYVcVk1waGw0j60O-101" value="Article Title" style="text;strokeColor=none;fillColor=none;html=1;fontSize=24;fontStyle=1;verticalAlign=middle;align=center;" parent="1" vertex="1">
          <mxGeometry x="402.5" y="2610" width="142.5" height="40" as="geometry" />
        </mxCell>
        <mxCell id="SOSSbYVcVk1waGw0j60O-102" value="Article Title" style="text;strokeColor=none;fillColor=none;html=1;fontSize=24;fontStyle=1;verticalAlign=middle;align=center;" parent="1" vertex="1">
          <mxGeometry x="81.25" y="2610" width="142.5" height="40" as="geometry" />
        </mxCell>
        <mxCell id="SOSSbYVcVk1waGw0j60O-103" value="Article Title" style="text;strokeColor=none;fillColor=none;html=1;fontSize=24;fontStyle=1;verticalAlign=middle;align=center;" parent="1" vertex="1">
          <mxGeometry x="720" y="2975" width="142.5" height="40" as="geometry" />
        </mxCell>
        <mxCell id="SOSSbYVcVk1waGw0j60O-104" value="Article Title" style="text;strokeColor=none;fillColor=none;html=1;fontSize=24;fontStyle=1;verticalAlign=middle;align=center;" parent="1" vertex="1">
          <mxGeometry x="400" y="2970" width="142.5" height="40" as="geometry" />
        </mxCell>
        <mxCell id="SOSSbYVcVk1waGw0j60O-105" value="Article Title" style="text;strokeColor=none;fillColor=none;html=1;fontSize=24;fontStyle=1;verticalAlign=middle;align=center;" parent="1" vertex="1">
          <mxGeometry x="80" y="2970" width="142.5" height="40" as="geometry" />
        </mxCell>
        <mxCell id="SOSSbYVcVk1waGw0j60O-106" value="Article Title" style="text;strokeColor=none;fillColor=none;html=1;fontSize=24;fontStyle=1;verticalAlign=middle;align=center;" parent="1" vertex="1">
          <mxGeometry x="400" y="3330" width="142.5" height="40" as="geometry" />
        </mxCell>
        <mxCell id="SOSSbYVcVk1waGw0j60O-107" value="Article Title" style="text;strokeColor=none;fillColor=none;html=1;fontSize=24;fontStyle=1;verticalAlign=middle;align=center;" parent="1" vertex="1">
          <mxGeometry x="78.75" y="3330" width="142.5" height="40" as="geometry" />
        </mxCell>
        <mxCell id="SOSSbYVcVk1waGw0j60O-109" value="Article Title" style="text;strokeColor=none;fillColor=none;html=1;fontSize=24;fontStyle=1;verticalAlign=middle;align=center;" parent="1" vertex="1">
          <mxGeometry x="720" y="2610" width="142.5" height="40" as="geometry" />
        </mxCell>
        <mxCell id="SOSSbYVcVk1waGw0j60O-119" value="Article Title" style="text;strokeColor=none;fillColor=none;html=1;fontSize=24;fontStyle=1;verticalAlign=middle;align=center;" parent="1" vertex="1">
          <mxGeometry x="720" y="3330" width="142.5" height="40" as="geometry" />
        </mxCell>
        <mxCell id="SOSSbYVcVk1waGw0j60O-120" value="Lorem Ipsum *40" style="text;html=1;align=center;verticalAlign=middle;whiteSpace=wrap;rounded=0;" parent="1" vertex="1">
          <mxGeometry x="142.5" y="3020" width="100" height="30" as="geometry" />
        </mxCell>
        <mxCell id="SOSSbYVcVk1waGw0j60O-121" value="Lorem Ipsum *40" style="text;html=1;align=center;verticalAlign=middle;whiteSpace=wrap;rounded=0;" parent="1" vertex="1">
          <mxGeometry x="147.5" y="2660" width="100" height="30" as="geometry" />
        </mxCell>
        <mxCell id="SOSSbYVcVk1waGw0j60O-122" value="Lorem Ipsum *40" style="text;html=1;align=center;verticalAlign=middle;whiteSpace=wrap;rounded=0;" parent="1" vertex="1">
          <mxGeometry x="790" y="3400" width="100" height="30" as="geometry" />
        </mxCell>
        <mxCell id="SOSSbYVcVk1waGw0j60O-123" value="Lorem Ipsum *40" style="text;html=1;align=center;verticalAlign=middle;whiteSpace=wrap;rounded=0;" parent="1" vertex="1">
          <mxGeometry x="470" y="3390" width="100" height="30" as="geometry" />
        </mxCell>
        <mxCell id="SOSSbYVcVk1waGw0j60O-124" value="Lorem Ipsum *40" style="text;html=1;align=center;verticalAlign=middle;whiteSpace=wrap;rounded=0;" parent="1" vertex="1">
          <mxGeometry x="137.5" y="3400" width="100" height="30" as="geometry" />
        </mxCell>
        <mxCell id="SOSSbYVcVk1waGw0j60O-125" value="Lorem Ipsum *40" style="text;html=1;align=center;verticalAlign=middle;whiteSpace=wrap;rounded=0;" parent="1" vertex="1">
          <mxGeometry x="790" y="3020" width="100" height="30" as="geometry" />
        </mxCell>
        <mxCell id="SOSSbYVcVk1waGw0j60O-126" value="Lorem Ipsum *40" style="text;html=1;align=center;verticalAlign=middle;whiteSpace=wrap;rounded=0;" parent="1" vertex="1">
          <mxGeometry x="467.5" y="3015" width="100" height="30" as="geometry" />
        </mxCell>
        <mxCell id="SOSSbYVcVk1waGw0j60O-127" value="Lorem Ipsum *40" style="text;html=1;align=center;verticalAlign=middle;whiteSpace=wrap;rounded=0;" parent="1" vertex="1">
          <mxGeometry x="790" y="2660" width="100" height="30" as="geometry" />
        </mxCell>
        <mxCell id="SOSSbYVcVk1waGw0j60O-128" value="Lorem Ipsum *40" style="text;html=1;align=center;verticalAlign=middle;whiteSpace=wrap;rounded=0;" parent="1" vertex="1">
          <mxGeometry x="470" y="2660" width="100" height="30" as="geometry" />
        </mxCell>
        <mxCell id="SOSSbYVcVk1waGw0j60O-129" value="" style="line;strokeWidth=1;html=1;rounded=0;shadow=0;labelBackgroundColor=none;fillColor=none;fontFamily=Verdana;fontSize=14;fontColor=#000000;align=center;comic=1;" parent="1" vertex="1">
          <mxGeometry x="22.5" y="840" width="1060" height="110" as="geometry" />
        </mxCell>
        <mxCell id="SOSSbYVcVk1waGw0j60O-131" value="&#xa;&lt;div style=&quot;forced-color-adjust: none; color: rgb(0, 0, 0); font-family: Verdana; font-size: 12px; font-style: normal; font-variant-ligatures: normal; font-variant-caps: normal; font-weight: 400; letter-spacing: normal; orphans: 2; text-align: center; text-indent: 0px; text-transform: none; widows: 2; word-spacing: 0px; -webkit-text-stroke-width: 0px; white-space: normal; background-color: rgb(251, 251, 251); text-decoration-thickness: initial; text-decoration-style: initial; text-decoration-color: initial;&quot;&gt;Help support our shelter by buying homemade accessories for your pet!&amp;nbsp;&lt;/div&gt;&lt;div style=&quot;forced-color-adjust: none; color: rgb(0, 0, 0); font-family: Verdana; font-size: 12px; font-style: normal; font-variant-ligatures: normal; font-variant-caps: normal; font-weight: 400; letter-spacing: normal; orphans: 2; text-align: center; text-indent: 0px; text-transform: none; widows: 2; word-spacing: 0px; -webkit-text-stroke-width: 0px; white-space: normal; background-color: rgb(251, 251, 251); text-decoration-thickness: initial; text-decoration-style: initial; text-decoration-color: initial;&quot;&gt;blankets, beds, jackets&lt;/div&gt;&#xa;&#xa;" style="text;html=1;align=center;verticalAlign=middle;whiteSpace=wrap;rounded=0;" parent="1" vertex="1">
          <mxGeometry x="357.5" y="720" width="450" height="30" as="geometry" />
        </mxCell>
        <mxCell id="SOSSbYVcVk1waGw0j60O-132" value="" style="whiteSpace=wrap;html=1;rounded=0;shadow=0;labelBackgroundColor=none;strokeWidth=1;fillColor=none;fontFamily=Verdana;fontSize=12;align=center;comic=1;" parent="1" vertex="1">
          <mxGeometry x="22.5" y="630" width="1060" height="60" as="geometry" />
        </mxCell>
        <mxCell id="SOSSbYVcVk1waGw0j60O-133" value="We&#39;re not finished until every last pet has a home!" style="text;html=1;align=center;verticalAlign=middle;whiteSpace=wrap;rounded=0;" parent="1" vertex="1">
          <mxGeometry x="356.25" y="630" width="432.5" height="30" as="geometry" />
        </mxCell>
        <mxCell id="SOSSbYVcVk1waGw0j60O-134" value="Foster" style="strokeWidth=1;shadow=0;dashed=0;align=center;html=1;shape=mxgraph.mockup.buttons.button;strokeColor=#666666;fontColor=#ffffff;mainText=;buttonStyle=round;fontSize=17;fontStyle=1;fillColor=#008cff;whiteSpace=wrap;" parent="1" vertex="1">
          <mxGeometry x="670" y="660" width="110" height="20" as="geometry" />
        </mxCell>
        <mxCell id="SOSSbYVcVk1waGw0j60O-135" value="Adopt" style="strokeWidth=1;shadow=0;dashed=0;align=center;html=1;shape=mxgraph.mockup.buttons.button;strokeColor=#666666;fontColor=#ffffff;mainText=;buttonStyle=round;fontSize=17;fontStyle=1;fillColor=#008cff;whiteSpace=wrap;" parent="1" vertex="1">
          <mxGeometry x="337.5" y="660" width="120" height="20" as="geometry" />
        </mxCell>
        <mxCell id="SOSSbYVcVk1waGw0j60O-138" value="Shelter Paws&lt;div&gt;Address&lt;/div&gt;&lt;div&gt;hours&lt;/div&gt;" style="text;html=1;align=left;verticalAlign=middle;whiteSpace=wrap;rounded=0;" parent="1" vertex="1">
          <mxGeometry x="150" y="900" width="120" height="70" as="geometry" />
        </mxCell>
        <mxCell id="SOSSbYVcVk1waGw0j60O-139" value="Upcoming Events" style="text;html=1;align=center;verticalAlign=middle;whiteSpace=wrap;rounded=0;" parent="1" vertex="1">
          <mxGeometry x="490" y="900" width="130" height="30" as="geometry" />
        </mxCell>
        <mxCell id="SOSSbYVcVk1waGw0j60O-140" value="" style="line;strokeWidth=1;html=1;rounded=0;shadow=0;labelBackgroundColor=none;fillColor=none;fontFamily=Verdana;fontSize=14;fontColor=#000000;align=center;comic=1;" parent="1" vertex="1">
          <mxGeometry x="20" y="1060" width="1060" height="110" as="geometry" />
        </mxCell>
        <mxCell id="SOSSbYVcVk1waGw0j60O-141" value="Shelter Paws (c) 501 non-profit organization&lt;div&gt;contact us, career opportunities, volunteer opportunities, privacy policy&lt;/div&gt;" style="text;html=1;align=center;verticalAlign=middle;whiteSpace=wrap;rounded=0;" parent="1" vertex="1">
          <mxGeometry x="582.5" y="1170" width="545" height="30" as="geometry" />
        </mxCell>
        <mxCell id="SOSSbYVcVk1waGw0j60O-142" value="FB Logo" style="ellipse;whiteSpace=wrap;html=1;" parent="1" vertex="1">
          <mxGeometry x="50" y="1130" width="50" height="50" as="geometry" />
        </mxCell>
        <mxCell id="SOSSbYVcVk1waGw0j60O-143" value="IG Logo&lt;span style=&quot;color: rgba(0, 0, 0, 0); font-family: monospace; font-size: 0px; text-align: start; text-wrap-mode: nowrap;&quot;&gt;%3CmxGraphModel%3E%3Croot%3E%3CmxCell%20id%3D%220%22%2F%3E%3CmxCell%20id%3D%221%22%20parent%3D%220%22%2F%3E%3CmxCell%20id%3D%222%22%20value%3D%22FB%20Logo%22%20style%3D%22ellipse%3BwhiteSpace%3Dwrap%3Bhtml%3D1%3B%22%20vertex%3D%221%22%20parent%3D%221%22%3E%3CmxGeometry%20x%3D%22480%22%20y%3D%221080%22%20width%3D%2250%22%20height%3D%2250%22%20as%3D%22geometry%22%2F%3E%3C%2FmxCell%3E%3C%2Froot%3E%3C%2FmxGraphModel%3E&lt;/span&gt;" style="ellipse;whiteSpace=wrap;html=1;" parent="1" vertex="1">
          <mxGeometry x="130" y="1130" width="50" height="50" as="geometry" />
        </mxCell>
        <mxCell id="SOSSbYVcVk1waGw0j60O-144" value="email" style="ellipse;whiteSpace=wrap;html=1;" parent="1" vertex="1">
          <mxGeometry x="207.5" y="1130" width="50" height="50" as="geometry" />
        </mxCell>
        <mxCell id="SOSSbYVcVk1waGw0j60O-145" value="Join newsletter:&lt;div&gt;Name&lt;/div&gt;&lt;div&gt;Email:&lt;/div&gt;" style="text;html=1;align=left;verticalAlign=middle;whiteSpace=wrap;rounded=0;" parent="1" vertex="1">
          <mxGeometry x="862.5" y="910" width="180" height="30" as="geometry" />
        </mxCell>
      </root>
    </mxGraphModel>
  </diagram>
</mxfile>
